{
	"asset":{
		"version":"2.0",
		"generator":"Created using the official Cinema 4D glTF Exporter 1.000x284978"
	},
	"textures":[{
		"sampler":0,
		"source":0
	}],
	"nodes":[{
		"name":"GEO.3",
		"mesh":0
	}],
	"scenes":[{
		"nodes":[0]
	}],
	"samplers":[{
		"magFilter":9729,
		"minFilter":9729,
		"wrapS":10497,
		"wrapT":10497
	}],
	"meshes":[{
		"name":"GEO.3",
		"primitives":[{
			"attributes":{
				"POSITION":1,
				"NORMAL":2,
				"TEXCOORD_0":3
			},
			"indices":0,
			"material":0
		}]
	}],
	"accessors":[{
		"bufferView":0,
		"type":"SCALAR",
		"componentType":5123,
		"count":67836,
		"byteOffset":0,
		"min":[0],
		"max":[13680]
	},
	{
		"bufferView":1,
		"type":"VEC3",
		"componentType":5126,
		"count":13681,
		"byteOffset":0,
		"min":[-61.38349914550781,
		-62.08230209350586,
		-12.921951293945313],
		"max":[61.35595703125,
		67.6972885131836,
		11.021539688110352]
	},
	{
		"bufferView":1,
		"type":"VEC3",
		"componentType":5126,
		"count":13681,
		"byteOffset":12,
		"min":[-0.9998337030410767,
		-0.9999508857727051,
		-0.9999983906745911],
		"max":[1.0,
		0.9998497366905212,
		0.9999710917472839]
	},
	{
		"bufferView":1,
		"type":"VEC2",
		"componentType":5126,
		"count":13681,
		"byteOffset":24,
		"min":[0.00170718296431005,
		0.00170718296431005],
		"max":[0.968139111995697,
		0.9950248003005981]
	}],
	"bufferViews":[{
		"buffer":0,
		"byteOffset":0,
		"byteLength":135672,
		"target":34963
	},
	{
		"buffer":0,
		"byteOffset":135672,
		"byteLength":437792,
		"target":34962,
		"byteStride":32
	}],
	"buffers":[{
		"uri":"data:application/octet-stream;base64,",
		"byteLength":573464
	}],
	"images":[{
		"uri":"data:image/jpeg;base64,"
	}],
	"materials":[{
		"pbrMetallicRoughness":{
			"baseColorFactor":[1.0,
			1.0,
			1.0,
			1.0],
			"metallicFactor":1.0,
			"roughnessFactor":1.0
		},
		"emissiveTexture":{
			"index":0
		},
		"emissiveFactor":[1.0,
		1.0,
		1.0],
		"alphaMode":"OPAQUE",
		"doubleSided":false,
		"name":"BAKE TEX"
	}]
}